<?xml version="1.0" encoding="UTF-8" standalone="no"?>
<svg
   xmlns:dc="http://purl.org/dc/elements/1.1/"
   xmlns:cc="http://creativecommons.org/ns#"
   xmlns:rdf="http://www.w3.org/1999/02/22-rdf-syntax-ns#"
   xmlns:svg="http://www.w3.org/2000/svg"
   xmlns="http://www.w3.org/2000/svg"
   id="svg6842"
   version="1.1"
   viewBox="0 0 140.00003 187.29904"
   height="187.29904mm"
   width="140.00003mm">
  <defs
     id="defs6836" />
  <metadata
     id="metadata6839">
    <rdf:RDF>
      <cc:Work
         rdf:about="">
        <dc:format>image/svg+xml</dc:format>
        <dc:type
           rdf:resource="http://purl.org/dc/dcmitype/StillImage" />
        <dc:title></dc:title>
      </cc:Work>
    </rdf:RDF>
  </metadata>
  <g
     transform="translate(1059.5417,305.40547)"
     id="layer1">
    <path
       style="fill:#babdb6;stroke:#888a85;stroke-width:2;stroke-linecap:round;stroke-linejoin:round;stroke-miterlimit:4;stroke-dasharray:none"
       class="fabric sa"
       id="fs-3"
       d="m -1058.5417,-256.84652 v 91.45 l 6.94,9.52 82.60003,26.55 10.41,-2.74 c 0.05,-0.05 0.14,-0.15 0.27,-0.28 1.84,-1.98 10.15,-10.96 18.46,-23.84 9.8,-15.19 19.32,-35.63 19.32,-56.41 0,-20.41 -6.59,-40.34 -13.3,-55.17 -6.24,-13.78 -12.47,-23.06 -13.07,-23.99 l -12.95,-3.5 c -54.92003,28.02 -86.71003,28.34 -88.98003,28.41 -0.01,0 -0.02,0.01 -0.03,0.01 z" />
    <path
       d="m -1048.2917,-256.62718 v 91.45001 l 82.59999,26.55 c 0,0 35.40004,-36.87 35.40004,-73.75 0,-36.88001 -24.78,-73.75001 -24.78,-73.75001 -57.82003,29.5 -93.22003,29.5 -93.22003,29.5 z"
       id="path6812"
       class="fabric"
       style="fill:none;stroke:#2e3436;stroke-width:0.5;stroke-miterlimit:4;stroke-dasharray:0.50000001, 0.50000001;stroke-dashoffset:0" />
    <path
       style="fill:none;stroke:#000000;stroke-width:1;stroke-linecap:round;stroke-linejoin:round;stroke-miterlimit:4;stroke-dasharray:3.00000011, 3.00000011;stroke-dashoffset:0"
       class="fabric"
       id="fs-1-7"
       d="m -965.94167,-138.84652 c 0,0 35.4,-36.87 35.4,-73.75 0,-36.88 -24.78,-73.75 -24.78,-73.75" />
    <text
       style="font-weight:700;font-size:16px;text-anchor:middle;fill:#555753;stroke:none;stroke-width:0.5"
       class="title-nr note fill-note"
       x="-989.54169"
       y="-194.15654"
       id="text6690">
      <tspan
         style="fill:#555753;stroke:none;stroke-width:0.5"
         id="tspan6688">1</tspan>
    </text>
    <path
       id="path6818"
       d="m -955.32167,-286.34652 c -0.0923,-0.21561 -0.21688,-0.4201 -0.27677,-0.64684 -0.0241,-0.0913 0,-0.94469 0,-1.06908 0,-0.66817 0,-1.33635 0,-2.00452 0,-0.0973 0.0301,-1.00879 0,-1.06908 -0.0445,-0.0891 -0.19684,-0.0632 -0.26728,-0.13363 -1.2e-4,-1.3e-4 2.1e-4,-0.4003 0,-0.40091 -0.0199,-0.0598 -0.10546,-0.0773 -0.13363,-0.13363 -0.0199,-0.0398 0.0199,-0.0938 0,-0.13364 -0.0282,-0.0563 -0.11371,-0.0739 -0.13363,-0.13363 -0.0226,-0.0677 0,-0.8262 0,-0.93544 0,-0.62364 0,-1.24726 0,-1.87089 0,-0.35636 0,-0.71272 0,-1.06908 0,-0.0891 0,-0.17818 0,-0.26727 0,-0.0445 -0.0199,-0.0938 0,-0.13363 0.27807,-0.55616 -0.009,0.14286 0.26726,-0.13364 0.0315,-0.0315 0,-0.0891 0,-0.13363 0,-0.0891 0,-0.17818 0,-0.26727 0,-0.97999 0,-1.95998 0,-2.93997 0,-0.4009 0,-0.80181 0,-1.20271 0,-0.0318 0.015,-0.50459 0,-0.53454 -0.0282,-0.0563 -0.0987,-0.0812 -0.13363,-0.13363 -0.0552,-0.0829 -0.0784,-0.1844 -0.13363,-0.26727 -0.12256,-0.18385 -0.20617,-0.13744 -0.40091,-0.26727 -0.0524,-0.035 -0.0773,-0.10547 -0.13363,-0.13364 -0.0399,-0.0199 -0.10214,0.0315 -0.13364,0 -0.0704,-0.0704 -0.0632,-0.19684 -0.13363,-0.26727 -0.0704,-0.0704 -0.18439,-0.0784 -0.26727,-0.13363 -0.0524,-0.035 -0.0891,-0.0891 -0.13364,-0.13364 -0.0445,-0.0445 -0.0987,-0.0812 -0.13363,-0.13363 -0.15356,-0.23034 -0.13364,-0.202 -0.13364,-0.40091 0,-0.0891 0.0331,-0.18455 0,-0.26726 -0.0596,-0.14913 -0.21648,-0.24854 -0.26727,-0.40091 -0.0563,-0.16904 0,-0.35636 0,-0.53454 0,-0.0445 0.0199,-0.0938 0,-0.13363 -0.0282,-0.0563 -0.0891,-0.0891 -0.13363,-0.13364"
       style="fill:none;stroke:#000000;stroke-width:1;stroke-linecap:round;stroke-linejoin:round;stroke-miterlimit:4;stroke-dasharray:none;stroke-opacity:1" />
    <path
       id="path6820"
       d="m -965.94167,-138.84653 c -0.11584,0.2853 -0.2129,0.57899 -0.34756,0.85593 -0.0275,0.0566 -0.0891,0.0891 -0.13363,0.13364 -0.0445,0.0445 -0.0812,0.0987 -0.13363,0.13362 -0.0829,0.0553 -0.19684,0.0632 -0.26728,0.13364 -0.009,0.008 -0.25066,0.50964 -0.26725,0.53454 -0.0803,0.12051 -0.50855,0.45659 -0.53454,0.53453 -0.19288,0.57859 0.25545,-0.0491 -0.13365,0.53454 -0.26726,0.40092 0,-0.26726 -0.4009,0.40092 -0.0725,0.12079 -0.0813,0.27012 -0.13364,0.4009 -0.037,0.0925 -0.10213,0.17277 -0.13363,0.26726 -0.0581,0.17425 -0.0692,0.36258 -0.13363,0.53456 -0.0699,0.1865 -0.21896,0.34126 -0.26728,0.53454 -0.0432,0.17285 0,0.35634 0,0.53454 0,0.31181 0,0.62362 0,0.93543 0,0.97999 0,1.95998 0,2.93997 0,0.57907 0,1.15816 0,1.73725 0,0.13362 0,0.26726 0,0.4009 0,0.22273 -0.064,0.45485 0,0.66818 0.0746,0.24879 0.29542,0.43082 0.40091,0.66818 0.0746,0.16782 0.0891,0.35634 0.13363,0.53454 0.13364,0.17817 0.3013,0.3353 0.40091,0.53453 0.004,0.008 0.2591,1.04458 0.26728,1.06908 0.0764,0.2291 0.28653,0.47757 0.40089,0.66818 0.35031,0.58383 -0.11518,-0.0967 0.26727,0.66815 0.0282,0.0564 0.10546,0.0773 0.13363,0.13364 0.0199,0.0399 0,0.0891 0,0.13364 0,0.0446 0,0.0891 0,0.13364 0,0.31182 0,0.62363 0,0.93544 0,0.84635 0,1.6927 0,2.53907"
       style="fill:none;stroke:#000000;stroke-width:1;stroke-linecap:round;stroke-linejoin:round;stroke-miterlimit:4;stroke-dasharray:none;stroke-opacity:1" />
  </g>
</svg>
