<?xml version="1.0" encoding="UTF-8" standalone="no"?>
<svg
   xmlns:dc="http://purl.org/dc/elements/1.1/"
   xmlns:cc="http://creativecommons.org/ns#"
   xmlns:rdf="http://www.w3.org/1999/02/22-rdf-syntax-ns#"
   xmlns:svg="http://www.w3.org/2000/svg"
   xmlns="http://www.w3.org/2000/svg"
   width="256.06067mm"
   height="143.14336mm"
   viewBox="0 0 256.06067 143.14335"
   version="1.1"
   id="svg6842">
  <defs
     id="defs6836" />
  <metadata
     id="metadata6839">
    <rdf:RDF>
      <cc:Work
         rdf:about="">
        <dc:format>image/svg+xml</dc:format>
        <dc:type
           rdf:resource="http://purl.org/dc/dcmitype/StillImage" />
        <dc:title></dc:title>
      </cc:Work>
    </rdf:RDF>
  </metadata>
  <path
     style="fill:#babdb6;stroke:#888a85;stroke-width:2;stroke-linecap:round;stroke-linejoin:round;stroke-miterlimit:4;stroke-dasharray:none;stroke-dashoffset:0;stroke-opacity:1"
     d="m 127.65873,0.99991 v 0.003 C 105.4336,1.06411 79.067577,3.90618 58.217537,15.98657 37.135457,28.20139 4.7200175,36.45695 4.7200175,36.45695 c -6.39525,29.14632 -3.29524,51.17113 0,73.04959 38.6204095,11.13729 79.0593895,31.85435 122.9387125,32.62231 v 0.0145 c 0.12389,-0.003 0.24747,-0.005 0.37135,-0.008 0.12401,0.003 0.24776,0.006 0.37186,0.008 v -0.0145 c 43.87932,-0.76796 84.3183,-21.48502 122.93871,-32.62231 3.29523,-21.87848 6.39524,-43.90327 0,-73.04959 0,0 -32.41492,-8.25556 -53.49701,-20.47038 C 176.99355,3.90621 150.62711,1.06413 128.40194,1.003 V 1 c -0.12313,0 -0.24803,10e-4 -0.37135,0.002 C 127.90708,1.00183 127.78194,1 127.65873,1.001 Z"
     id="path8091" />
  <path
     d="M 128.28018,0.50152 V 142.64167"
     style="fill:none;stroke:#000000;stroke-width:0.5;stroke-linecap:butt;stroke-linejoin:miter;stroke-miterlimit:4;stroke-dasharray:none;stroke-opacity:1"
     id="path983" />
  <path
     id="path8814"
     d="M 125.28716,5.004539 C 100.04098,4.980092 74.040702,10.019132 52.349495,23.593249 38.195707,30.433906 23.237397,35.446284 8.1211395,39.678368 c -4.77324,22.006978 -3.428395,44.619045 0.16211,66.718752 42.2166535,12.58212 83.6705475,34.22761 128.7734405,31.3125 38.47261,-2.99028 74.00021,-20.26284 110.70898,-31.3086 3.48819,-22.09057 5.2163,-44.785464 -0.0527,-66.773434 C 225.9852,34.063048 205.39278,24.935162 185.64458,14.473289 166.49427,6.651878 145.6891,4.941705 125.28716,5.004539 Z"
     style="fill:none;stroke:#2e3436;stroke-width:1;stroke-linecap:round;stroke-linejoin:round;stroke-miterlimit:4;stroke-dasharray:2.99999999, 2.99999999;stroke-dashoffset:0;stroke-opacity:1" />
</svg>
